<svg width="20" height="20" viewBox="0 0 20 20" fill="none" xmlns="http://www.w3.org/2000/svg">
<g clip-path="url(#clip0_359_17944)">
<path d="M3.75001 18.3334V14.1667M3.75001 5.83341V1.66675M1.66667 3.75008H5.83334M1.66667 16.2501H5.83334M10.8333 2.50008L9.38819 6.25747C9.15318 6.86849 9.03568 7.174 8.85295 7.43099C8.691 7.65875 8.492 7.85774 8.26424 8.01969C8.00726 8.20242 7.70175 8.31992 7.09072 8.55493L3.33334 10.0001L7.09072 11.4452C7.70175 11.6802 8.00726 11.7977 8.26424 11.9805C8.492 12.1424 8.691 12.3414 8.85295 12.5692C9.03568 12.8262 9.15318 13.1317 9.38819 13.7427L10.8333 17.5001L12.2785 13.7427C12.5135 13.1317 12.631 12.8262 12.8137 12.5692C12.9757 12.3414 13.1747 12.1424 13.4024 11.9805C13.6594 11.7977 13.9649 11.6802 14.576 11.4452L18.3333 10.0001L14.576 8.55493C13.9649 8.31992 13.6594 8.20242 13.4024 8.01969C13.1747 7.85774 12.9757 7.65875 12.8137 7.43099C12.631 7.174 12.5135 6.86849 12.2785 6.25747L10.8333 2.50008Z" stroke="#7A7C79" stroke-width="1.6" stroke-linecap="round" stroke-linejoin="round"/>
</g>
<defs>
<clipPath id="clip0_359_17944">
<rect width="20" height="20" fill="white"/>
</clipPath>
</defs>
</svg>
