<svg width="20" height="20" viewBox="0 0 20 20" fill="none" xmlns="http://www.w3.org/2000/svg">
<g clip-path="url(#clip0_378_3424)">
<path d="M8.33334 12.5001L5.77062 15.0948C5.41316 15.4568 5.23443 15.6377 5.0808 15.6505C4.94752 15.6616 4.81702 15.608 4.72997 15.5064C4.62963 15.3894 4.62963 15.1351 4.62963 14.6264V13.3264C4.62963 12.87 4.2559 12.5398 3.80434 12.4737V12.4737C2.71146 12.3136 1.85315 11.4553 1.69307 10.3624C1.66667 10.1822 1.66667 9.96718 1.66667 9.53712V5.66675C1.66667 4.26662 1.66667 3.56655 1.93916 3.03177C2.17884 2.56137 2.56129 2.17892 3.0317 1.93923C3.56647 1.66675 4.26654 1.66675 5.66667 1.66675H11.8333C13.2335 1.66675 13.9335 1.66675 14.4683 1.93923C14.9387 2.17892 15.3212 2.56137 15.5609 3.03177C15.8333 3.56655 15.8333 4.26662 15.8333 5.66675V9.16675M15.8333 18.3334L14.0197 17.0725C13.7647 16.8952 13.6372 16.8066 13.4985 16.7438C13.3754 16.688 13.2459 16.6474 13.113 16.6229C12.9632 16.5953 12.8079 16.5953 12.4974 16.5953H11C10.0666 16.5953 9.59987 16.5953 9.24335 16.4137C8.92975 16.2539 8.67478 15.9989 8.51499 15.6853C8.33334 15.3288 8.33334 14.8621 8.33334 13.9287V11.8334C8.33334 10.9 8.33334 10.4333 8.51499 10.0768C8.67478 9.76316 8.92975 9.50819 9.24335 9.3484C9.59987 9.16675 10.0666 9.16675 11 9.16675H15.6667C16.6001 9.16675 17.0668 9.16675 17.4233 9.3484C17.7369 9.50819 17.9919 9.76316 18.1517 10.0768C18.3333 10.4333 18.3333 10.9 18.3333 11.8334V14.0953C18.3333 14.8719 18.3333 15.2602 18.2065 15.5665C18.0373 15.9748 17.7129 16.2993 17.3045 16.4685C16.9982 16.5953 16.6099 16.5953 15.8333 16.5953V18.3334Z" stroke="#7A7C79" stroke-width="1.6" stroke-linecap="round" stroke-linejoin="round"/>
</g>
<defs>
<clipPath id="clip0_378_3424">
<rect width="20" height="20" fill="white"/>
</clipPath>
</defs>
</svg>
