<svg width="20" height="20" viewBox="0 0 20 20" fill="none" xmlns="http://www.w3.org/2000/svg">
<path d="M8.33334 6.66659V5.83325M8.33334 10.4166V9.58325M8.33334 14.1666V13.3333M4.33334 3.33325H15.6667C16.6001 3.33325 17.0668 3.33325 17.4233 3.51491C17.7369 3.6747 17.9919 3.92966 18.1517 4.24327C18.3333 4.59979 18.3333 5.0665 18.3333 5.99992V7.08325C16.7225 7.08325 15.4167 8.38909 15.4167 9.99992C15.4167 11.6107 16.7225 12.9166 18.3333 12.9166V13.9999C18.3333 14.9333 18.3333 15.4 18.1517 15.7566C17.9919 16.0702 17.7369 16.3251 17.4233 16.4849C17.0668 16.6666 16.6001 16.6666 15.6667 16.6666H4.33334C3.39992 16.6666 2.93321 16.6666 2.57669 16.4849C2.26308 16.3251 2.00812 16.0702 1.84833 15.7566C1.66667 15.4 1.66667 14.9333 1.66667 13.9999V12.9166C3.2775 12.9166 4.58334 11.6107 4.58334 9.99992C4.58334 8.38909 3.2775 7.08325 1.66667 7.08325V5.99992C1.66667 5.0665 1.66667 4.59979 1.84833 4.24327C2.00812 3.92966 2.26308 3.6747 2.57669 3.51491C2.93321 3.33325 3.39992 3.33325 4.33334 3.33325Z" stroke="#7A7C79" stroke-width="1.6" stroke-linecap="round" stroke-linejoin="round"/>
</svg>
