<svg width="27" height="32" viewBox="0 0 27 32" fill="none" xmlns="http://www.w3.org/2000/svg">
<path d="M1.45315 2.7379C2.69701 2.7379 2.69895 0.793442 1.45315 0.793442C0.207349 0.793442 0.207349 2.7379 1.45315 2.7379Z" fill="#F6931E"/>
<path d="M1.25747 5.60988C3.596 5.74211 5.45211 3.92987 5.56255 1.62374C5.62261 0.375392 3.689 0.379281 3.62507 1.62374C3.56694 2.9168 2.51877 3.74126 1.25747 3.66931C-0.00383289 3.59737 0.0194169 5.53988 1.25747 5.60988Z" fill="#F6931E"/>
<path d="M2.13129 15.1163C2.06093 14.5375 2.12392 13.9502 2.31539 13.3997C2.50685 12.8492 2.8217 12.3501 3.23565 11.941C4.16758 11.0427 5.30101 10.4476 5.79119 9.17208C6.21356 8.07735 5.95006 6.67151 4.81276 6.13483C3.67546 5.59816 2.11966 6.19511 1.13155 6.85234C0.10081 7.54068 1.06761 9.22069 2.10029 8.52652C2.42772 8.31652 4.06877 7.38901 4.06877 8.1668C4.05521 9.05347 2.90628 9.68931 2.32504 10.1774C1.59215 10.7609 1.01417 11.5171 0.64238 12.3786C0.270594 13.2402 0.116511 14.1806 0.193809 15.1163C0.306183 16.3491 2.23979 16.3608 2.13129 15.1163Z" fill="#F6931E"/>
<path d="M7.0796 5.47765L9.18177 3.02763C9.27606 3.78208 9.37229 4.53524 9.47045 5.28709C9.58283 6.16988 10.6019 6.51599 11.1425 5.74015C11.6831 4.96431 12.4755 4.40625 13.1594 3.79569L14.1282 2.9518C14.2095 3.65569 14.2915 4.36088 14.3742 5.06737C14.4459 5.69154 15.0969 6.25738 15.7305 5.84515C16.7786 5.15293 17.7958 4.41403 18.7859 3.64013L18.7742 5.29098C18.7742 6.45766 20.5606 6.45766 20.5683 5.29098C20.5761 4.12431 20.5858 2.93041 20.5935 1.75012C20.5935 0.919833 19.6248 0.630109 19.0629 1.11428C18.0612 1.96206 17.0363 2.75152 15.9784 3.50013C15.888 2.72235 15.7976 1.94456 15.7072 1.16678C15.6161 0.388996 14.7946 -0.0135078 14.1747 0.530941L11.6908 2.70485C11.4641 2.90513 11.2374 3.11124 11.0107 3.30569C10.91 2.51235 10.8086 1.71771 10.7066 0.921778C10.6194 0.235383 9.73782 -0.375178 9.17595 0.285939L5.81249 4.20403C5.06075 5.07709 6.32398 6.35655 7.0796 5.47765Z" fill="#F6931E"/>
<path d="M14.7036 7.03709L7.86039 7.00014C6.6979 7.00014 6.6979 8.79293 7.86039 8.80071L14.7036 8.84155C15.8583 8.84544 15.8602 7.04486 14.7036 7.03709Z" fill="#F6931E"/>
<path d="M7.76349 11.418C8.5942 11.3129 9.43275 11.2842 10.2687 11.3324C11.4311 11.3985 11.4176 9.59797 10.2687 9.53186C9.4321 9.48353 8.5929 9.51217 7.76156 9.61741C7.28106 9.67769 6.8645 9.98686 6.8645 10.5177C6.86644 10.9571 7.28106 11.4724 7.76349 11.418Z" fill="#F6931E"/>
<path d="M12.7758 9.47545C11.6133 9.47545 11.6133 11.276 12.7758 11.276C13.9383 11.276 13.9325 9.47545 12.7758 9.47545Z" fill="#F6931E"/>
<path d="M15.1841 9.47545C14.0216 9.47545 14.0216 11.276 15.1841 11.276C16.3465 11.276 16.3407 9.47545 15.1841 9.47545Z" fill="#F6931E"/>
<path d="M17.9915 7.13634C17.8985 5.99105 16.1024 5.96966 16.1974 7.13634C16.2904 8.26413 16.3821 9.39191 16.4725 10.5197C16.5674 11.6669 18.3615 11.6767 18.2685 10.5197C18.1755 9.36275 18.0845 8.26413 17.9915 7.13634Z" fill="#F6931E"/>
<path d="M19.617 6.76684C18.4546 6.76684 18.4546 8.56741 19.617 8.56741C20.7795 8.56741 20.7737 6.76684 19.617 6.76684Z" fill="#F6931E"/>
<path d="M19.7139 11.278C20.8764 11.278 20.8764 9.47746 19.7139 9.47746C18.5514 9.47746 18.5573 11.278 19.7139 11.278Z" fill="#F6931E"/>
<path d="M23.924 10.1424C23.924 11.3091 25.7181 11.3091 25.7181 10.1424C25.7181 7.48825 24.3619 5.18407 22.6802 3.226C21.9284 2.34515 20.6633 3.61489 21.4111 4.49962C22.7712 6.09213 23.9221 7.98409 23.924 10.1424Z" fill="#F6931E"/>
<path d="M21.3123 11.3907C21.2348 12.5574 23.0309 12.5419 23.1083 11.3907C23.1988 10.0216 23.0412 8.64736 22.6434 7.3346C22.3101 6.2282 20.578 6.69876 20.9132 7.81294C21.2641 8.97081 21.3994 10.1837 21.3123 11.3907Z" fill="#F6931E"/>
<path d="M24.856 11.6358C24.2628 12.0899 23.6343 12.4957 22.9766 12.8491C21.9594 13.3975 22.8642 14.953 23.8833 14.4047C24.543 14.0513 25.1734 13.6456 25.7685 13.1913C26.156 12.8958 26.3498 12.4136 26.0901 11.9586C25.8615 11.5794 25.2435 11.3383 24.856 11.6358Z" fill="#F6931E"/>
<path d="M1.16255 17.018C0.00974792 17.018 6.04808e-05 18.8206 1.16255 18.8206C2.32504 18.8206 2.32504 17.018 1.16255 17.018Z" fill="#F6931E"/>
<path d="M4.38842 22.9759C5.51603 23.215 5.99653 21.4786 4.86504 21.2395C3.992 21.0713 3.21931 20.5666 2.7125 19.8336C2.06538 18.8808 0.511522 19.7811 1.16251 20.7436C1.90801 21.8801 3.06499 22.6807 4.38842 22.9759Z" fill="#F6931E"/>
<path d="M7.52323 23.3337C9.08096 23.2896 10.6393 23.2663 12.1984 23.2637C13.3609 23.2637 13.3609 21.4611 12.1984 21.4631C10.638 21.4631 9.07967 21.4858 7.52323 21.5311C6.37236 21.5642 6.36655 23.3667 7.52323 23.3337Z" fill="#F6931E"/>
<path d="M14.6067 23.1723C15.7692 23.1723 15.7692 21.3717 14.6067 21.3717C13.4442 21.3717 13.45 23.1723 14.6067 23.1723Z" fill="#F6931E"/>
<path d="M17.354 21.2745C16.1916 21.2745 16.1916 23.0751 17.354 23.0751C18.5165 23.0751 18.5107 21.2745 17.354 21.2745Z" fill="#F6931E"/>
<path d="M18.6502 22.2681C18.7858 22.7872 19.276 22.9642 19.7526 22.8981C22.19 22.5558 24.2767 21.0003 24.606 18.4472C24.668 17.9611 24.1488 17.5508 23.709 17.5469C23.1723 17.5469 22.8739 17.9669 22.81 18.4472C22.5872 20.1758 20.7834 20.9478 19.2741 21.1597C18.7936 21.2278 18.5379 21.8422 18.6502 22.2681Z" fill="#F6931E"/>
<path d="M23.9067 15.2777C22.7442 15.2777 22.7442 17.0783 23.9067 17.0783C25.0691 17.0783 25.0633 15.2777 23.9067 15.2777Z" fill="#F6931E"/>
<path d="M25.4488 14.1733C24.7378 14.1733 24.7358 15.2816 25.4488 15.2816C26.1618 15.2816 26.156 14.1733 25.4488 14.1733Z" fill="#F6931E"/>
<path d="M25.4004 16.8333C24.6894 16.8333 24.6874 17.9417 25.4004 17.9417C26.1134 17.9417 26.1115 16.8333 25.4004 16.8333Z" fill="#F6931E"/>
<path d="M24.7746 20.3392C24.1202 21.1147 23.6559 22.0332 23.4187 23.0212C23.1815 24.0092 23.1781 25.0391 23.4087 26.0287C23.6024 26.8978 24.9373 26.5284 24.7397 25.6592C24.5653 24.9061 24.5658 24.1228 24.7411 23.3699C24.9165 22.617 25.2621 21.9147 25.7511 21.3172C26.3149 20.6367 25.3442 19.6508 24.7746 20.3392Z" fill="#F6931E"/>
<path d="M23.3273 28.0276C23.1239 27.4443 22.7092 26.892 22.5368 26.297C22.2921 25.4116 22.2263 24.4861 22.3431 23.5748C22.4399 22.6901 21.0585 22.6959 20.9636 23.5748C20.8562 24.4939 20.908 25.4248 21.1166 26.3262C21.2176 26.7373 21.3524 27.1392 21.5196 27.5279C21.6029 27.7223 21.6882 27.9168 21.787 28.1112C21.8535 28.2418 21.9306 28.3667 22.0176 28.4846C22.0398 28.6238 22.0993 28.7543 22.1897 28.8622C22.2802 28.9701 22.3981 29.0513 22.531 29.0971L22.56 29.1068C22.9475 29.241 23.492 28.8754 23.4339 28.4398C23.4339 28.4398 23.4339 28.4262 23.4339 28.4204C23.443 28.3511 23.4383 28.2807 23.42 28.2132C23.4017 28.1458 23.3702 28.0827 23.3273 28.0276Z" fill="#F6931E"/>
<path d="M13.6147 23.9598C11.608 24.1697 9.5912 24.2671 7.57367 24.2514C6.50612 24.2514 6.50612 25.9062 7.57367 25.914C9.20116 25.9256 10.8254 25.8608 12.4464 25.7195C12.0321 27.0963 11.7206 28.5021 11.5145 29.9254C11.3634 30.9715 12.9579 31.4226 13.111 30.3668C13.3753 28.5417 13.8119 26.746 14.4149 25.004C14.5777 24.5373 14.1437 23.9053 13.6147 23.9598Z" fill="#F6931E"/>
<path d="M17.0673 26.4915C17.3676 26.052 17.6892 25.6651 17.9082 25.4006C18.5863 24.584 17.4219 23.4017 16.7457 24.234C15.7111 25.457 14.4304 27.0281 14.6474 28.7393C14.8411 30.2423 16.1586 31.4615 17.7047 31.3507C19.09 31.2437 20.1905 29.9021 19.836 28.4982C19.5512 27.3568 18.2608 26.6004 17.0673 26.4915ZM16.9762 29.5657C16.7159 29.4516 16.5039 29.2492 16.3774 28.9939C16.2509 28.7386 16.218 28.4467 16.2846 28.1695C16.385 28.1811 16.4867 28.1745 16.5849 28.1501C17.0673 28.0315 18.2434 28.4359 18.2414 29.0465C18.2395 29.7193 17.4374 29.8029 16.9762 29.5657Z" fill="#F6931E"/>
<path d="M19.5686 24.7278C18.5011 24.7278 18.4991 26.3903 19.5686 26.3903C20.6381 26.3903 20.6381 24.7278 19.5686 24.7278Z" fill="#F6931E"/>
<path d="M9.2709 26.5984L7.36248 26.9193C6.31237 27.0962 6.75799 28.6985 7.80229 28.5235L8.96478 28.329C9.05584 28.3135 9.19534 28.2726 9.34259 28.2337C9.32321 28.4282 9.3019 28.6226 9.28059 28.8171C9.22892 29.2798 9.17273 29.7426 9.11202 30.2054C9.0539 30.6546 9.5344 31.0338 9.93933 31.0376C10.4353 31.0376 10.7143 30.6487 10.7686 30.2054C10.8461 29.6007 10.9197 28.994 10.9836 28.3873C11.0418 27.8526 11.1929 27.2207 10.7608 26.7812C10.3288 26.3418 9.77464 26.5129 9.2709 26.5984Z" fill="#F6931E"/>
<path d="M7.46513 29.5871L6.18252 29.6512C6.32331 28.1307 6.41179 26.6082 6.44796 25.0837C6.47121 24.0143 4.81466 24.0143 4.79141 25.0837C4.75008 26.9076 4.63318 28.7224 4.44073 30.5282C4.39617 30.9618 4.85922 31.3799 5.26997 31.3604L7.46513 31.2496C8.52493 31.1971 8.52493 29.5326 7.46513 29.5871Z" fill="#F6931E"/>
<path d="M0.734348 23.9694C0.559975 26.2833 0.323603 28.5914 0.0116683 30.8917C-0.0483936 31.3389 0.120167 31.7784 0.592912 31.9145C0.980408 32.0253 1.56165 31.7765 1.61203 31.3312C1.94334 28.8831 2.20877 26.4292 2.38702 23.9675C2.47033 22.9019 0.813785 22.9058 0.734348 23.9694Z" fill="#F6931E"/>
<path d="M3.62123 24.2456C2.55561 24.2456 2.55367 25.9081 3.62123 25.9081C4.68878 25.9081 4.68878 24.2456 3.62123 24.2456Z" fill="#F6931E"/>
<path d="M3.42744 26.5187C2.36183 26.5187 2.35989 28.1812 3.42744 28.1812C4.49499 28.1812 4.49499 26.5187 3.42744 26.5187Z" fill="#F6931E"/>
<path d="M3.09999 28.7431C2.03437 28.7431 2.03243 30.4057 3.09999 30.4057C4.16754 30.4057 4.15785 28.7431 3.09999 28.7431Z" fill="#F6931E"/>
<path d="M14.1727 30.3337C13.1071 30.3337 13.1052 31.9962 14.1727 31.9962C15.2403 31.9962 15.2403 30.3337 14.1727 30.3337Z" fill="#F6931E"/>
</svg>
